<svg width="258" height="40" viewBox="0 0 258 40" fill="none" xmlns="http://www.w3.org/2000/svg">
<path d="M224 40V0H245.455C248.011 0 250.135 0.600776 251.827 1.80233C253.553 3.00388 254.847 4.57364 255.71 6.51163C256.573 8.44961 257.004 10.5426 257.004 12.7907C257.004 15.3488 256.49 17.6357 255.461 19.6512C254.432 21.6279 253.039 23.2171 251.28 24.4186L258 40H245.654L240.428 26.5698H235.001V40H224ZM235.001 17.6744H242.717C243.58 17.6744 244.31 17.2868 244.908 16.5116C245.505 15.6977 245.804 14.6318 245.804 13.314C245.804 12.5 245.671 11.7829 245.406 11.1628C245.14 10.5426 244.775 10.0581 244.31 9.7093C243.846 9.32171 243.315 9.12791 242.717 9.12791H235.001V17.6744Z" fill="#FCFEFF"/>
<path d="M165.435 40V10.2326H154V0H188V10.2326H176.616V40H165.435Z" fill="#FCFEFF"/>
<path d="M84 40V0H93.3314L103.953 14.3605C104.251 14.7481 104.648 15.3101 105.145 16.0465C105.641 16.7829 106.137 17.5388 106.634 18.314C107.163 19.0504 107.56 19.6512 107.825 20.1163L108.073 20C108.04 18.9147 108.023 17.8488 108.023 16.8023C108.023 15.7171 108.023 14.9031 108.023 14.3605V0H118V40H108.718L96.7562 24.0116C96.1937 23.2364 95.7139 22.5388 95.3168 21.9186C94.9197 21.2597 94.5392 20.6395 94.1752 20.0581L93.927 20.1744C93.9601 20.9109 93.9766 21.6473 93.9766 22.3837C93.9766 23.1202 93.9766 23.6628 93.9766 24.0116V40H84Z" fill="#FCFEFF"/>
<path d="M62.4751 40C58.5909 40 55.271 39.2509 52.5155 37.7528C49.76 36.2547 47.6519 34.0262 46.1911 31.0674C44.7304 28.0712 44 24.382 44 20C44 15.5805 44.7304 11.8914 46.1911 8.93259C47.6519 5.97378 49.76 3.74532 52.5155 2.24719C55.271 0.749064 58.5909 0 62.4751 0C66.3926 0 69.729 0.749064 72.4845 2.24719C75.24 3.74532 77.3481 5.97378 78.8089 8.93259C80.2696 11.8914 81 15.5805 81 20C81 24.382 80.2696 28.0712 78.8089 31.0674C77.3481 34.0262 75.24 36.2547 72.4845 37.7528C69.729 39.2509 66.3926 40 62.4751 40ZM62.4751 30.7303C63.6703 30.7303 64.716 30.5243 65.6124 30.1124C66.542 29.6629 67.3055 29.0449 67.9031 28.2584C68.5339 27.4719 68.9987 26.5356 69.2974 25.4494C69.5962 24.3258 69.7456 23.1086 69.7456 21.7978V18.2022C69.7456 16.8914 69.5962 15.6929 69.2974 14.6067C68.9987 13.4831 68.5339 12.5281 67.9031 11.7416C67.3055 10.9551 66.542 10.3558 65.6124 9.94382C64.716 9.49438 63.6703 9.26966 62.4751 9.26966C61.2799 9.26966 60.2176 9.49438 59.288 9.94382C58.3917 10.3558 57.6447 10.9551 57.0471 11.7416C56.4495 12.5281 56.0013 13.4831 55.7026 14.6067C55.4038 15.6929 55.2544 16.8914 55.2544 18.2022V21.7978C55.2544 23.1086 55.4038 24.3258 55.7026 25.4494C56.0013 26.5356 56.4495 27.4719 57.0471 28.2584C57.6447 29.0449 58.3917 29.6629 59.288 30.1124C60.2176 30.5243 61.2799 30.7303 62.4751 30.7303Z" fill="#FCFEFF"/>
<path d="M0 40V0H15.3252L18.46 14.0698C18.5926 14.5736 18.7751 15.407 19.0073 16.5698C19.2727 17.7326 19.538 18.9922 19.8034 20.3488C20.1019 21.7054 20.3673 22.9651 20.5995 24.1279H20.9976C21.1634 23.2752 21.3625 22.2674 21.5947 21.1047C21.86 19.9031 22.1254 18.6822 22.3908 17.4419C22.6561 16.2015 22.8883 15.0775 23.0874 14.0698L26.2221 0H41V40H30.5012V25.5814C30.5012 24.031 30.5012 22.4419 30.5012 20.814C30.5344 19.1473 30.551 17.5775 30.551 16.1047C30.5841 14.6318 30.6007 13.4109 30.6007 12.4419H30.2027C30.1032 13.2171 29.9539 14.1279 29.7549 15.1744C29.589 16.2209 29.4066 17.2674 29.2075 18.314C29.0085 19.3217 28.8095 20.2132 28.6104 20.9884L24.182 40H15.9721L11.4939 20.9884C11.3281 20.2132 11.129 19.3217 10.8968 18.314C10.6978 17.2674 10.5154 16.2209 10.3495 15.1744C10.1837 14.1279 10.0344 13.2364 9.9017 12.5H9.50364C9.53681 13.469 9.56998 14.6899 9.60316 16.1628C9.63633 17.6357 9.65291 19.186 9.65291 20.814C9.68609 22.4419 9.70267 24.031 9.70267 25.5814V40H0Z" fill="#FCFEFF"/>
<rect x="121" width="30" height="10" fill="#F0F9FF" fill-opacity="0.7"/>
<rect x="121" y="30" width="30" height="10" fill="#F0F9FF" fill-opacity="0.7"/>
<rect x="121" y="15" width="30" height="9" fill="#F0F9FF" fill-opacity="0.7"/>
<rect x="191" width="30" height="10" fill="#F0F9FF" fill-opacity="0.7"/>
<rect x="191" y="30" width="30" height="10" fill="#F0F9FF" fill-opacity="0.7"/>
<rect x="191" y="15" width="30" height="9" fill="#F0F9FF" fill-opacity="0.7"/>
</svg>
